<svg id="Glyph" height="512" viewBox="0 0 128 128" width="512" xmlns="http://www.w3.org/2000/svg" fill="#fff">
    <circle cx="41.77" cy="103.939" r="8.34" transform="matrix(.973 -.23 .23 .973 -22.763 12.377)" />
    <path
        d="m41.77 93.617a10.017 10.017 0 0 1 9.01 5.3 12.772 12.772 0 0 0 4.63-9.35 20.4 20.4 0 0 0 -3.1-11.82 100.4 100.4 0 0 1 -6.37-11.747 89.7 89.7 0 0 1 -6.81-21.64c-.24-1.32-.5-2.59-.78-3.79a9.427 9.427 0 0 0 -9.19-7.34c-.43 0-.82.04-1.24.08l-.16.01a11.208 11.208 0 0 0 -1.227.263v-4.083a9.215 9.215 0 0 0 9-7.995l1.467-11.105a9.214 9.214 0 0 0 -7.91-10.333c-.39-.05-8.49-1.026-10.34 7.92l-1.47 11.113a9.211 9.211 0 0 0 7.253 10.21v5.027a10.945 10.945 0 0 0 -5.7 13.153l15.25 49.56a10.19 10.19 0 0 1 7.687-3.433z" />
    <path
        d="m110.59 99.547a11.309 11.309 0 0 0 -4.45-7.73 11.54 11.54 0 0 0 -8.65-2.32l-41.37 5.52a14.06 14.06 0 0 1 -4.51 5.8 10.019 10.019 0 0 1 .5 3.14 10.354 10.354 0 0 1 -10.34 10.343c-.34 0-.67-.02-1-.05v4.24h62.36s9.151-3.902 7.46-18.943z" />
    <path d="m40.77 120.487v1.39a6.116 6.116 0 0 0 6.11 6.11h50.85a6.114 6.114 0 0 0 6.1-6.11v-1.45l-.09.06z" />
</svg>